<svg width="161" height="45" viewBox="0 0 161 45" fill="none" xmlns="http://www.w3.org/2000/svg">
<g clip-path="url(#clip0_108_10329)">
<path d="M0.461914 33.9176H159.968V44.222H0.461914V33.9176Z" fill="#EC1C2E"/>
<path d="M0.485352 27.6126V0.651855H33.751C44.5495 0.651855 52.2424 5.56878 52.2424 13.944C52.2424 21.9193 46.1492 27.6126 33.4452 27.6126H0.485352ZM27.2108 20.7195C31.3514 20.7195 33.7746 17.1906 33.7746 14.4851C33.7746 11.7326 31.6102 8.50953 27.3285 8.50953H18.271V20.7195H27.2108Z" fill="#00529B"/>
<path d="M81.391 7.3333L69.1811 27.6597H52.1953L68.2871 0.534302H94.4479L110.61 27.6597H74.8508L79.109 20.6019H89.3428L81.391 7.3333Z" fill="#00529B"/>
<path d="M131.454 27.5891H113.833V0.534302H160.461V8.4155H131.454V13.2383H159.967V20.8843H131.454V27.5891Z" fill="#00529B"/>
</g>
<defs>
<clipPath id="clip0_108_10329">
<rect width="160" height="43.6877" fill="white" transform="translate(0.461914 0.53418)"/>
</clipPath>
</defs>
</svg>
