<svg width="194" height="67" viewBox="0 0 194 67" fill="none" xmlns="http://www.w3.org/2000/svg">
<g clip-path="url(#clip0_108_10308)">
<path fill-rule="evenodd" clip-rule="evenodd" d="M34.177 15.573C39.683 15.573 45.152 14.906 50.434 13.571L51.101 13.404L51.601 13.867C55.382 17.37 57.977 21.893 59.126 26.954L59.275 27.621L58.793 28.121C51.156 36 45.558 45.73 42.611 56.223L42.425 56.891L41.758 57.094C39.348 57.836 36.79 58.225 34.176 58.225C31.618 58.225 29.061 57.836 26.577 57.057L25.928 56.854L25.743 56.204C22.777 45.73 17.179 36.018 9.52399 28.122L9.04199 27.622L9.18999 26.955C10.339 21.913 12.971 17.372 16.789 13.831L17.29 13.368L17.957 13.534C23.37 14.887 28.82 15.573 34.177 15.573Z" fill="#071748"/>
<path fill-rule="evenodd" clip-rule="evenodd" d="M12.082 32.625C12.082 26.712 14.38 21.17 18.551 17C22.722 12.829 28.264 10.53 34.159 10.53C40.072 10.53 45.615 12.829 49.785 17C53.956 21.17 56.254 26.712 56.254 32.625C56.254 44.785 46.337 54.703 34.159 54.703C28.264 54.703 22.722 52.404 18.551 48.234C14.38 44.063 12.082 38.521 12.082 32.625Z" fill="#071748"/>
<path d="M17.8429 15.5271C16.2179 17.0811 14.8119 18.8631 13.6799 20.8211C12.5739 22.7361 11.7289 24.8191 11.1969 27.0211C15.0069 31.0021 18.3409 35.4291 21.1039 40.2181C23.8129 44.9111 25.9789 49.9621 27.5149 55.2921C28.5309 55.5911 29.5809 55.8271 30.6599 55.9931C31.8049 56.1691 32.9799 56.2631 34.1769 56.2631C35.3969 56.2631 36.5869 56.1751 37.7439 56.0031C38.7969 55.8451 39.8239 55.6201 40.8209 55.3291C42.3589 49.9871 44.5269 44.9171 47.2389 40.2061C49.9939 35.4211 53.3189 30.9941 57.1189 27.0201C56.5869 24.8181 55.7489 22.7351 54.6489 20.8181C53.5339 18.8751 52.1509 17.1071 50.5459 15.5631C47.9519 16.2011 45.2989 16.6931 42.6029 17.0281C39.8379 17.3711 37.0249 17.5491 34.1759 17.5491C31.2969 17.5491 28.4579 17.3561 25.6619 16.9941C22.9969 16.6511 20.3919 16.1551 17.8429 15.5271ZM12.4729 20.1221C13.7379 17.9331 15.3269 15.9531 17.1679 14.2461L17.4469 13.9871L17.8119 14.0791C20.4469 14.7421 23.1219 15.2611 25.8379 15.6131C28.5509 15.9641 31.3299 16.1511 34.1769 16.1511C36.9709 16.1511 39.7279 15.9771 42.4339 15.6411C45.2079 15.2961 47.9279 14.7831 50.5789 14.1161L50.9459 14.0241L51.2239 14.2841C53.0509 15.9861 54.6169 17.9541 55.8629 20.1261C57.0879 22.2611 58.0069 24.5981 58.5649 27.0801L58.6479 27.4481L58.3869 27.7181C54.5629 31.6711 51.2199 36.0991 48.4519 40.9081C45.7299 45.6381 43.5689 50.7261 42.0599 56.0801L41.9559 56.4451L41.5919 56.5561C40.4049 56.9231 39.1889 57.2021 37.9459 57.3881C36.7159 57.5721 35.4579 57.6651 34.1759 57.6651C32.9109 57.6651 31.6659 57.5651 30.4509 57.3781C29.1859 57.1831 27.9459 56.8921 26.7429 56.5211L26.3779 56.4081L26.2749 56.0431C24.7699 50.7011 22.6099 45.6331 19.8899 40.9201C17.1149 36.1091 13.7609 31.6791 9.92895 27.7181L9.66895 27.4481L9.75195 27.0801C10.3079 24.6001 11.2359 22.2611 12.4729 20.1221Z" fill="#D9D9D9"/>
<path d="M12.6416 32.6249C12.6416 26.6799 15.0506 21.2979 18.9436 17.4019C22.8396 13.5029 28.2196 11.0909 34.1576 11.0909C40.1056 11.0909 45.4896 13.4999 49.3866 17.3969C53.2836 21.2939 55.6926 26.6769 55.6926 32.6249C55.6926 38.5639 53.2816 43.9449 49.3816 47.8389C45.4856 51.7339 40.1036 54.1419 34.1576 54.1419C28.2186 54.1419 22.8396 51.7319 18.9456 47.8369C15.0516 43.9429 12.6416 38.5659 12.6416 32.6249ZM19.9336 18.3859C16.2936 22.0289 14.0426 27.0629 14.0426 32.6249C14.0426 38.1789 16.2946 43.2079 19.9356 46.8489C23.5766 50.4899 28.6056 52.7419 34.1586 52.7419C39.7216 52.7419 44.7556 50.4899 48.3976 46.8509C52.0406 43.2099 54.2936 38.1809 54.2936 32.6249C54.2936 27.0629 52.0406 22.0289 48.3976 18.3859C44.7546 14.7429 39.7206 12.4899 34.1586 12.4899C28.6016 12.4909 23.5726 14.7439 19.9336 18.3859Z" fill="#D9D9D9"/>
<path d="M26.8446 31.56C27.5386 31.426 28.2316 31.472 28.8456 31.695C29.4466 31.914 29.9706 32.302 30.3496 32.855L30.6886 33.65L29.8956 33.359C28.7176 32.722 27.5306 33.075 26.3646 33.422C24.8826 33.862 23.4296 34.294 21.9126 33.012C21.6046 32.794 21.3506 32.464 21.1496 32.128C20.9536 31.801 20.8086 31.471 20.7116 31.239L20.2236 30.067L21.2416 30.825C21.2486 30.83 23.3536 32.449 26.8246 31.564L26.8446 31.56Z" fill="#D9D9D9"/>
<path fill-rule="evenodd" clip-rule="evenodd" d="M33.6953 25.7679C32.2123 25.7679 30.8403 26.0459 30.3033 26.8069C30.3033 26.8069 29.7103 27.3619 29.5983 27.8449C29.5983 27.8449 25.7993 25.2679 24.6123 30.8659C24.6123 30.8659 26.9113 29.2159 28.2273 30.2909C28.2273 30.2909 28.8943 31.2369 30.1183 31.5509C31.7853 31.9959 31.6003 32.3299 31.6753 32.6819C31.6753 32.6819 31.4533 33.2009 30.0073 34.1089C28.5803 35.0349 27.7643 34.5909 26.4483 34.1649C26.4483 34.1649 26.3553 36.1119 28.9693 36.0749C28.9693 36.0749 29.3963 36.1119 29.9143 36.0549C29.9143 36.0549 26.7813 37.3709 27.9683 40.5979C27.9683 40.5979 29.0433 39.2989 30.2293 39.0019C30.2293 39.0019 26.8363 42.8569 31.3233 46.6209C31.3233 46.6209 31.3233 43.1719 32.6023 42.1169C32.6023 42.1169 33.3063 44.8589 33.0833 46.3609C33.0833 46.3609 33.0273 47.6769 32.6193 48.3629C32.6193 48.3629 37.9393 48.2519 36.4193 41.8569C36.4193 41.8569 38.5513 42.5799 38.1063 45.4899C38.1063 45.4899 42.8883 43.0989 39.7373 38.1869C39.7373 38.1869 41.5353 38.1869 42.0913 40.3369C42.0913 40.3369 44.6493 36.3879 40.4233 32.6249C40.4233 32.6249 42.0173 32.2359 42.8883 33.5519C42.8883 33.5519 42.7773 30.5489 39.9413 29.0849C39.2923 28.7329 40.3123 27.6939 40.0523 27.1199L33.6953 25.7679Z" fill="#D40026"/>
<path fill-rule="evenodd" clip-rule="evenodd" d="M36.9951 28.0661C36.9951 28.0661 38.7191 25.8781 41.2951 26.1751C41.2951 26.1751 40.5721 29.4001 37.7361 29.9941L36.9951 28.0661Z" fill="#D40026"/>
<path fill-rule="evenodd" clip-rule="evenodd" d="M37.8291 28.381C37.8291 28.381 38.8111 27.417 39.9981 27.213C39.9981 27.213 39.4051 28.604 38.0521 28.882L37.8291 28.381Z" fill="#D9D9D9"/>
<path fill-rule="evenodd" clip-rule="evenodd" d="M32.7494 31.495C32.4354 31.273 32.0264 31.18 31.6934 31.347C32.7124 31.384 32.8794 32.83 33.9914 32.533C34.1954 32.478 34.3804 32.385 34.5474 32.274C33.8254 32.57 33.2314 31.903 32.7494 31.495Z" fill="#D9D9D9"/>
<path fill-rule="evenodd" clip-rule="evenodd" d="M38.5501 35.633C38.4231 35.035 38.2191 34.583 37.9331 34.229C37.5651 33.773 37.0601 33.478 36.4021 33.238C36.5481 33.877 36.7231 34.514 36.7281 35.175C36.7321 35.79 36.5991 36.32 36.3281 36.761C36.1301 37.077 35.8801 37.308 35.6401 37.472C35.8701 36.863 35.8851 36.343 35.8111 35.929C35.6741 35.158 35.2331 34.754 34.7331 34.221C34.7121 34.696 34.7191 35.182 34.6001 35.645C34.4471 36.235 34.1541 36.592 33.8541 36.809C34.0701 36.145 33.9151 35.518 33.7511 35.204L33.1211 35.536C33.1311 35.567 33.4131 36.136 33.0951 36.786C32.8831 37.218 32.4551 37.556 32.1201 37.891C33.3951 37.815 34.5511 37.68 35.1451 36.256C35.2041 37.209 34.6211 37.971 34.1031 38.705C35.2431 38.478 36.2001 38.246 36.9021 37.148C37.3401 36.47 37.4981 35.646 37.4021 34.666C38.0601 35.55 37.9781 36.699 37.9781 37.742C38.8431 36.693 39.4871 35.705 39.4771 34.233C39.4701 33.254 39.1181 32.116 37.9971 30.995L37.7561 31.736C39.0181 33.341 38.8691 34.757 38.5501 35.633Z" fill="#D9D9D9"/>
<path d="M28.4583 32.3019C28.0043 32.1669 27.5013 32.147 26.9913 32.243C24.6833 32.831 22.9043 32.387 21.8633 31.95C21.9993 32.151 22.1553 32.332 22.3273 32.45L22.3433 32.462L22.3543 32.47C23.5883 33.519 24.8663 33.1399 26.1693 32.7519C26.9193 32.5299 27.6773 32.3049 28.4583 32.3019Z" fill="#D40026"/>
<path fill-rule="evenodd" clip-rule="evenodd" d="M34.8988 23.84C35.3448 24.581 36.0668 25.564 36.9758 25.564C37.9018 25.564 38.4588 25.156 38.9038 24.415C38.6448 24.452 38.5708 24.452 38.3108 24.378C37.7358 24.174 37.4578 23.6 37.5698 22.858C37.7558 22.21 38.4038 21.839 39.0338 22.024C39.2558 22.098 39.4418 22.21 39.5718 22.357C39.4238 22.079 39.3678 21.727 39.4608 21.412C39.6458 20.763 40.4058 20.244 41.0728 20.355L38.4778 26.75H29.9138L27.3008 20.652C27.9498 20.541 28.7098 21.06 28.8948 21.709C28.9878 22.024 28.9318 22.265 28.7838 22.524C28.9138 22.376 29.1178 22.097 29.3218 22.024C29.9518 21.839 30.6748 22.395 30.8608 23.025C30.9718 23.767 30.7308 24.23 30.1558 24.434C29.8968 24.49 29.6748 24.453 29.4148 24.415C29.8598 25.156 30.5268 25.564 31.4538 25.564C32.3618 25.564 33.0288 24.582 33.4748 23.84C33.2708 23.987 33.0298 24.062 32.7698 24.062C32.1018 24.062 31.5828 23.524 31.5828 22.857C31.5828 22.19 32.1018 21.634 32.7698 21.634C32.9738 21.634 33.1958 21.69 33.3628 21.801C33.1408 21.579 32.9918 21.263 32.9918 20.93C32.9918 20.263 33.5298 19.725 34.1778 19.725C34.8448 19.725 35.3828 20.263 35.3828 20.93C35.3828 21.263 35.2158 21.598 34.9938 21.82C35.1798 21.709 35.3828 21.635 35.6048 21.635C36.2718 21.635 36.7918 22.191 36.7918 22.858C36.7918 23.525 36.2728 24.063 35.6048 24.063C35.3448 24.063 34.8988 23.84 34.8988 23.84Z" fill="#E6AB19"/>
<path d="M32.072 28.344C31.964 28.335 31.838 28.333 31.693 28.344C31.675 28.697 31.403 28.957 31.045 28.957C30.727 28.957 30.464 28.752 30.395 28.46C30.264 28.446 30.146 28.421 30.042 28.39C30.124 28.772 30.337 29.225 30.885 29.328C30.887 29.328 31.657 29.492 31.987 28.549V28.545C32.014 28.47 32.041 28.404 32.072 28.344ZM30.838 26.752C30.739 26.829 30.655 26.914 30.588 27.008L30.569 27.035L30.545 27.058C30.545 27.058 30.221 27.363 30.043 27.675C30.222 27.77 30.594 27.88 31.241 27.718L31.267 27.713C32.12 27.569 32.653 27.76 32.908 27.898C33.27 28.009 33.575 28.355 33.577 28.357L33.073 28.813C33.073 28.813 32.744 28.442 32.624 28.774C32.1 30.274 30.765 29.993 30.761 29.993C29.571 29.768 29.354 28.628 29.32 28.08C28.818 27.784 26.284 26.505 25.162 30.136C26.024 29.698 27.447 29.202 28.449 30.02L28.488 30.052L28.511 30.084C28.513 30.086 29.108 30.93 30.205 31.212L30.207 31.213C31.901 31.664 31.952 32.087 32.003 32.511C32.008 32.549 32.013 32.587 32.017 32.61L32.04 32.717L31.997 32.818C31.996 32.82 31.731 33.438 30.193 34.403C28.84 35.28 28 35.054 26.894 34.682C27.071 35.14 27.568 35.744 28.965 35.724H28.989C28.989 35.724 29.401 35.759 29.877 35.708L32.174 35.462L30.051 36.376C30.044 36.378 27.588 37.411 28.131 39.915C28.58 39.481 29.332 38.866 30.144 38.663L31.206 38.397L30.494 39.229C30.486 39.239 27.621 42.495 31.007 45.858C31.09 44.735 31.377 42.674 32.379 41.846L32.802 41.496L32.939 42.027C32.941 42.035 33.653 44.808 33.433 46.382C33.429 46.48 33.384 47.255 33.174 47.941C34.417 47.701 37.197 46.636 36.08 41.935L35.931 41.308L36.537 41.525C36.544 41.527 38.573 42.216 38.517 44.818C39.611 44.023 41.707 41.9 39.444 38.373L39.092 37.826L39.741 37.834C39.746 37.836 41.323 37.836 42.135 39.451C42.617 38.213 43.145 35.515 40.191 32.885L39.69 32.44L40.342 32.284C40.346 32.283 41.406 32.025 42.357 32.574C42.087 31.633 41.422 30.241 39.781 29.394L39.775 29.391C39.768 29.387 39.761 29.383 39.754 29.378C39.241 29.813 38.602 30.168 37.807 30.335L37.665 29.651C39.244 29.321 40.57 27.433 40.836 26.497C38.686 26.483 37.271 28.279 37.267 28.284L36.723 27.846C36.729 27.84 38.566 25.508 41.335 25.827L41.726 25.872L41.636 26.254C41.635 26.259 41.316 27.683 40.274 28.866C43.125 30.454 43.239 33.526 43.239 33.534L43.303 34.809L42.598 33.744C42.222 33.176 41.683 32.985 41.247 32.934C44.851 36.715 42.395 40.51 42.387 40.522L41.956 41.204L41.754 40.423C41.489 39.398 40.918 38.931 40.45 38.716C42.925 43.47 38.279 45.794 38.265 45.802L37.657 46.113L37.76 45.437C38.003 43.849 37.418 42.994 36.919 42.564C37.926 48.599 32.646 48.712 32.63 48.712L31.992 48.733L32.319 48.184C32.681 47.575 32.733 46.35 32.733 46.348V46.334L32.736 46.309C32.882 45.327 32.607 43.768 32.419 42.881C31.672 44.156 31.671 46.611 31.671 46.621L31.666 47.363L31.097 46.886C27.836 44.15 28.507 41.361 29.255 39.87C28.661 40.304 28.234 40.817 28.233 40.819L27.846 41.278L27.638 40.714C26.84 38.542 27.821 37.163 28.701 36.417C25.993 36.321 26.095 34.154 26.096 34.148L26.114 33.688L26.552 33.83C26.723 33.886 26.844 33.927 26.962 33.967C27.962 34.306 28.681 34.55 29.814 33.814L29.818 33.812C30.853 33.162 31.201 32.765 31.309 32.613C31.308 32.607 31.307 32.599 31.306 32.592C31.284 32.403 31.261 32.216 30.03 31.887V31.888C28.83 31.579 28.116 30.721 27.97 30.532C26.854 29.685 24.817 31.144 24.811 31.148L24.085 31.659L24.269 30.79C24.946 27.592 26.425 26.853 27.682 26.876C28.296 26.886 28.889 27.079 29.437 27.342C29.559 27.131 29.706 26.935 29.864 26.749H30.838V26.752Z" fill="#D9D9D9"/>
<path fill-rule="evenodd" clip-rule="evenodd" d="M177.221 25.166H166.472L160.839 39.079L160.857 25.148H153.626V43.84H166.277L167.414 40.996H176.44L177.737 43.84H184.791L177.221 25.166ZM145.149 35.204L137.509 25.147H128.34V39.023L122.583 25.165H111.976L107.534 36.269H100.907C100.356 38.597 99.0945 39.628 96.8025 39.628C94.1735 39.628 92.3965 37.673 92.3965 34.759C92.3965 30.975 93.8895 29.02 96.7495 29.02C99.0955 29.02 100.428 30.068 100.836 32.254H108.352L108.37 31.969C108.37 27.456 103.805 24.489 96.8575 24.489C89.4305 24.489 85.9124 27.385 85.3074 34.03C84.2424 32.875 82.5005 31.969 81.1855 31.863L78.3774 31.614L74.2374 31.543C72.4604 31.507 71.4474 30.885 71.4474 29.837C71.4474 28.647 72.4775 27.989 74.3615 27.989C76.5285 27.989 77.3995 28.789 77.3995 30.761H85.3064V30.512C85.3064 26.657 81.5755 24.524 74.8064 24.524C67.2905 24.524 63.6125 26.586 63.6125 30.761C63.6125 34.332 66.3135 36.251 71.4845 36.393L74.5584 36.465C76.8154 36.535 77.8285 37.086 77.8285 38.276C77.8285 39.29 76.4064 40.249 74.9324 40.249C72.3554 40.249 71.0055 39.36 71.0055 37.69H62.8145V37.868C62.8145 41.919 66.9005 44.139 74.3285 44.139C81.4895 44.139 85.0075 42.576 86.1445 38.862C88.4365 42.772 91.4215 44.194 97.2315 44.194C100.927 44.194 102.846 43.678 105.244 41.936L104.48 43.838H111.462L112.741 40.924H121.91L123.136 43.801H135.112V32.735L143.623 43.84H152.099V25.166H145.152V35.204H145.149ZM169.35 36.307L171.82 30.123L174.628 36.27L169.35 36.307ZM114.659 36.307L117.146 29.927L119.99 36.307H114.659Z" fill="#071748"/>
</g>
<defs>
<clipPath id="clip0_108_10308">
<rect width="192.756" height="66.756" fill="white" transform="translate(0.538086)"/>
</clipPath>
</defs>
</svg>
